# xmcd
# 
# Track frame offsets:
#     150
#     15113
#     31551
#     51365
#     74061
#     91134
#     107434
#     119846
#     133944
#     155809
#     171259
# 
# Disc length: 2477
# 
# Revision: 0
# Processed by: cddbd v1.5.2PL0 Copyright (c) Steve Scherf et al.
# Submitted via: fre:ac v1.0.17
# 
DISCID=9209ab0b
DTITLE=Eric Dodge - A Fork in the Road
DYEAR=0
DGENRE=Country
TTITLE0=This Is The Moment
TTITLE1=Close Every Door
TTITLE2=The Wind Beneath My Wings
TTITLE3=Music of the Night
TTITLE4=Bring Him Home 
TTITLE5=Still Haven't Found What I'm Looking For
TTITLE6=Empty Chairs at Empty Tables 
TTITLE7=Over The Rainbow 
TTITLE8=The Greatest Love of All
TTITLE9=Just One Person
TTITLE10=Hallelujah
EXTD=www.Ericdodge.com
EXTT0=
EXTT1=
EXTT2=
EXTT3=
EXTT4=
EXTT5=
EXTT6=
EXTT7=
EXTT8=
EXTT9=
EXTT10=
PLAYORDER=
